P3
# Bark texture
8 8
255
139 69 19  160 82 45  139 69 19  160 82 45  139 69 19  160 82 45  139 69 19  160 82 45
160 82 45  139 69 19  160 82 45  139 69 19  160 82 45  139 69 19  160 82 45  139 69 19
139 69 19  160 82 45  139 69 19  160 82 45  139 69 19  160 82 45  139 69 19  160 82 45
160 82 45  139 69 19  160 82 45  139 69 19  160 82 45  139 69 19  160 82 45  139 69 19
139 69 19  160 82 45  139 69 19  160 82 45  139 69 19  160 82 45  139 69 19  160 82 45
160 82 45  139 69 19  160 82 45  139 69 19  160 82 45  139 69 19  160 82 45  139 69 19
139 69 19  160 82 45  139 69 19  160 82 45  139 69 19  160 82 45  139 69 19  160 82 45
160 82 45  139 69 19  160 82 45  139 69 19  160 82 45  139 69 19  160 82 45  139 69 19