P3
# Leaf texture
8 8
255
34 139 34  0 100 0  34 139 34  0 100 0  34 139 34  0 100 0  34 139 34  0 100 0
0 100 0  34 139 34  0 100 0  34 139 34  0 100 0  34 139 34  0 100 0  34 139 34
34 139 34  0 100 0  34 139 34  0 100 0  34 139 34  0 100 0  34 139 34  0 100 0
0 100 0  34 139 34  0 100 0  34 139 34  0 100 0  34 139 34  0 100 0  34 139 34
34 139 34  0 100 0  34 139 34  0 100 0  34 139 34  0 100 0  34 139 34  0 100 0
0 100 0  34 139 34  0 100 0  34 139 34  0 100 0  34 139 34  0 100 0  34 139 34
34 139 34  0 100 0  34 139 34  0 100 0  34 139 34  0 100 0  34 139 34  0 100 0
0 100 0  34 139 34  0 100 0  34 139 34  0 100 0  34 139 34  0 100 0  34 139 34